# xmcd CD database file
#
# Track frame offsets:
#	150
#	12016
#	26967
#	38413
#	52617
#	64894
#	76065
#	89240
#	103733
#	118651
#	133432
#	148093
#	162788
#	176419
#	190763
#	205599
#	221358
#	232512
#	247398
#	262709
#
# Disc length: 3660 seconds
#
# Revision: 2
# Processed by: cddbd v1.5.2PL0 Copyright (c) Steve Scherf et al.
# Submitted via: CDex 1.70beta2
#
DISCID=0a0e4a14
DTITLE=Ella Fitzgerald - SimplyElla
DYEAR=2010
DGENRE=Jazz
TTITLE0=A-Tisket A-Tisket
TTITLE1=Someone To Watch Over Me
TTITLE2=Baby Wont You Please Come Home
TTITLE3=Time Alone Will Tell
TTITLE4=Its Only A Paper Moon
TTITLE5=Flying Home
TTITLE6=You Wont Be Satisfied
TTITLE7=Oh Lady Be Good
TTITLE8=Ive Got A Crush On You
TTITLE9=How High The Moon
TTITLE10=Aint Nobodys Business But My Own
TTITLE11=Rock It For Me
TTITLE12=Just A Simple Melody
TTITLE13=For Sentimental Reasons
TTITLE14=But Not For Me
TTITLE15=Maybe
TTITLE16=Happy Talk
TTITLE17=Ive Got The World On A String
TTITLE18=I Gotta Have My Baby Back
TTITLE19=Cryin Mood
EXTD=YEAR: 2010
EXTT0=
EXTT1=
EXTT2=
EXTT3=
EXTT4=
EXTT5=
EXTT6=
EXTT7=
EXTT8=
EXTT9=
EXTT10=
EXTT11=
EXTT12=
EXTT13=
EXTT14=
EXTT15=
EXTT16=
EXTT17=
EXTT18=
EXTT19=
PLAYORDER=
